Screenshots:
 
http://img38.imageshack.us/img38/3127/studentoftheyearposter.jpg 
http://imageshack.us/a/img585/5973/vlcsnap2012122910h43m50.png 
http://imageshack.us/a/img846/7743/vlcsnap2012122910h43m44.png 
http://imageshack.us/a/img560/4161/vlcsnap2012122910h43m39.png 
http://imageshack.us/a/img443/5262/vlcsnap2012122910h43m33.png 
http://imageshack.us/a/img836/3494/vlcsnap2012122910h43m06.png

NFO:

Release Date: 19 Oct 2012
Genre: Drama
Language: Hindi
Director: Karan Johar
Producer: Hiroo Johar,	 Gauri Khan
Cast: Sidharth Malhotra as Abhimanyu Singh a.k.a Abhi 
Varun Dhawan as Rohan Nanda a.k.a Ro

Student of the Year movie is the story of Abhimanyu Singh (Sidharth Malhotra) and Rohan Nanda (Varun Dhawan) who traverse the path of competition, envy, triumph, failure, manipulation and heartbreak in their mini-universe of St. Teresa's High School, Dehradun.

Format : MPEG-4
Format profile : Base Media
Codec ID : isom
File size : 804 MiB
Duration : 2h 26mn
Overall bit rate mode : Variable
Overall bit rate : 768 Kbps

Video
ID : 1
Format : MPEG-4 Visual
Format profile : Simple@L1
Format settings, BVOP : No
Format settings, QPel : No
Format settings, GMC : No warppoints
Format settings, Matrix : Default (H.263)
Codec ID : 20
Duration : 2h 26mn
Bit rate : 668 Kbps
Width : 1 280 pixels
Height : 544 pixels
Display aspect ratio : 2.35:1
Original display aspect ratio : 2.35:1
Frame rate mode : Constant
Frame rate : 29.970 fps
Color space : YUV
Chroma subsampling : 4:2:0
Bit depth : 8 bits
Scan type : Progressive
Compression mode : Lossy
Bits/(Pixel*Frame) : 0.032
Stream size : 699 MiB (87%)


Audio
ID : 2
Format : AAC
Format/Info : Advanced Audio Codec
Format profile : LC
Codec ID : 40
Duration : 2h 26mn
Bit rate mode : Variable
Bit rate : 96.0 Kbps
Channel(s) : 2 channels
Channel positions : Front: L R
Sampling rate : 32.0 KHz
Compression mode : Lossy
Stream size : 101 MiB (13%)